<svg xmlns="http://www.w3.org/2000/svg" xmlns:svg="http://www.w3.org/2000/svg" id="svg5692" width="32" height="32" version="1.1"><metadata id="metadata32"/><title id="title3096">PgVersion diff</title><g id="layer2" style="display:inline"><g id="g2869" transform="translate(-6,0)"><path id="path14788" d="m 6.5,17.5 c 6.811881,2.891089 15.514851,2.376238 19,0 l 0,5 -10,2 -9,-2 0,-5 z" style="color:#000;fill:#ce5c00;fill-opacity:1;fill-rule:nonzero;stroke:none;stroke-width:1;marker:none;visibility:visible;display:inline;overflow:visible;enable-background:accumulate"/><path id="path3121" d="m 6.5,7.5 c 6.811881,2.891089 15.514851,2.376238 19,0 l 0,5 -10,2 -9,-2 0,-5 z" style="color:#000;fill:#fcaf3e;fill-opacity:1;fill-rule:nonzero;stroke:none;stroke-width:1;marker:none;visibility:visible;display:inline;overflow:visible;enable-background:accumulate"/><path id="path14757" d="m 25.5,7.5 a 9.5,2 0 1 1 -19,0 9.5,2 0 1 1 19,0 z" style="color:#000;fill:#fcaf3e;fill-opacity:1;fill-rule:nonzero;stroke:#888a85;stroke-width:1;stroke-linecap:square;stroke-linejoin:round;stroke-miterlimit:4;stroke-opacity:1;stroke-dasharray:none;stroke-dashoffset:0;marker:none;visibility:visible;display:inline;overflow:visible;enable-background:accumulate"/><path id="path3119" d="m 6.5,12.5 c 6.811881,2.891089 15.514851,2.376238 19,0 l 0,5 -10,1 -9,-1 0,-5 z" style="color:#000;fill:#f57900;fill-opacity:1;fill-rule:nonzero;stroke:none;stroke-width:1;marker:none;visibility:visible;display:inline;overflow:visible;enable-background:accumulate"/><path id="path14767" d="m 6.5,7.5 0,15" style="color:#000;fill:#729fcf;fill-opacity:.78431373;fill-rule:nonzero;stroke:#888a85;stroke-width:1;stroke-linecap:round;stroke-linejoin:round;stroke-miterlimit:4;stroke-opacity:1;stroke-dasharray:none;stroke-dashoffset:0;marker:none;visibility:visible;display:inline;overflow:visible;enable-background:accumulate"/><path id="path14786" d="m 25.5,7.5 0,15" style="color:#000;fill:#729fcf;fill-opacity:.78431373;fill-rule:nonzero;stroke:#888a85;stroke-width:1;stroke-linecap:round;stroke-linejoin:round;stroke-miterlimit:4;stroke-opacity:1;stroke-dasharray:none;stroke-dashoffset:0;marker:none;visibility:visible;display:inline;overflow:visible;enable-background:accumulate"/><path id="path14836" d="m 6.5,12.5 c 6,3 13,3 19,0" style="fill:#fcaf3e;stroke:#888a85;stroke-width:1px;stroke-linecap:round;stroke-linejoin:round;stroke-opacity:1"/><path id="path14838" d="m 6.5,17.5 c 6,3 13,3 19,0" style="fill:#f57900;stroke:#888a85;stroke-width:1px;stroke-linecap:round;stroke-linejoin:round;stroke-opacity:1"/><path id="path14840" d="m 6.5,22.5 c 6,3 13,3 19,0" style="fill:#ce5c00;stroke:#888a85;stroke-width:1px;stroke-linecap:round;stroke-linejoin:round;stroke-opacity:1"/><path id="path13973-2" d="m 6.0695622,7.165215 c 0,0 -0.047827,13.573917 -0.047827,15.573917 3.5251728,2.182423 5.6326868,2.009567 5.6326868,2.009567 L 11.615088,9.1020812 C 10.475651,8.1212712 11.619842,6.1996533 17.452174,5.117389 15.409649,4.992041 7.0102811,4.640104 6.0695622,7.165215 z" style="opacity:.2;fill:#fcffff;fill-rule:evenodd;stroke:none;display:inline"/></g><path id="path2883" d="m 12.5,22.5 c 6.811881,2.891089 15.514851,2.376238 19,0 l 0,5 -10,2 -9,-2 0,-5 z" style="color:#000;fill:#ce5c00;fill-opacity:1;fill-rule:nonzero;stroke:none;stroke-width:1;marker:none;visibility:visible;display:inline;overflow:visible;enable-background:accumulate"/><path id="path2885" d="m 12.5,12.5 c 6.811881,2.891089 15.514851,2.376238 19,0 l 0,5 -10,2 -9,-2 0,-5 z" style="color:#000;fill:#eeeeec;fill-opacity:1;fill-rule:nonzero;stroke:none;stroke-width:1;marker:none;visibility:visible;display:inline;overflow:visible;enable-background:accumulate"/><path id="path2887" d="m 25.5,7.5 a 9.5,2 0 1 1 -19,0 9.5,2 0 1 1 19,0 z" transform="translate(6,5)" style="color:#000;fill:#eeeeec;fill-opacity:1;fill-rule:nonzero;stroke:#888a85;stroke-width:1;stroke-linecap:square;stroke-linejoin:round;stroke-miterlimit:4;stroke-opacity:1;stroke-dasharray:none;stroke-dashoffset:0;marker:none;visibility:visible;display:inline;overflow:visible;enable-background:accumulate"/><path id="path2889" d="m 12.5,17.5 c 6.811881,2.891089 15.514851,2.376238 19,0 l 0,5 -10,1 -9,-1 0,-5 z" style="color:#000;fill:#f57900;fill-opacity:1;fill-rule:nonzero;stroke:none;stroke-width:1;marker:none;visibility:visible;display:inline;overflow:visible;enable-background:accumulate"/><path id="path2891" d="m 12.5,12.5 0,15" style="color:#000;fill:#729fcf;fill-opacity:.78431373;fill-rule:nonzero;stroke:#888a85;stroke-width:1;stroke-linecap:round;stroke-linejoin:round;stroke-miterlimit:4;stroke-opacity:1;stroke-dasharray:none;stroke-dashoffset:0;marker:none;visibility:visible;display:inline;overflow:visible;enable-background:accumulate"/><path id="path2893" d="m 31.5,12.5 0,15" style="color:#000;fill:#729fcf;fill-opacity:.78431373;fill-rule:nonzero;stroke:#888a85;stroke-width:1;stroke-linecap:round;stroke-linejoin:round;stroke-miterlimit:4;stroke-opacity:1;stroke-dasharray:none;stroke-dashoffset:0;marker:none;visibility:visible;display:inline;overflow:visible;enable-background:accumulate"/><path id="path2895" d="m 12.5,17.5 c 6,3 13,3 19,0" style="fill:#eeeeec;stroke:#888a85;stroke-width:1px;stroke-linecap:round;stroke-linejoin:round;stroke-opacity:1"/><path id="path2897" d="m 12.5,22.5 c 6,3 13,3 19,0" style="fill:#f57900;stroke:#888a85;stroke-width:1px;stroke-linecap:round;stroke-linejoin:round;stroke-opacity:1"/><path id="path2899" d="m 12.5,27.5 c 6,3 13,3 19,0" style="fill:#ce5c00;stroke:#888a85;stroke-width:1px;stroke-linecap:round;stroke-linejoin:round;stroke-opacity:1"/><path id="path2901" d="m 12.069562,12.165215 c 0,0 -0.04783,13.573917 -0.04783,15.573917 3.525173,2.182423 5.632687,2.009567 5.632687,2.009567 l -0.03933,-15.646618 c -1.139437,-0.98081 0.0048,-2.902428 5.837086,-3.984692 C 21.409649,9.992041 13.010281,9.640104 12.069562,12.165215 z" style="opacity:.2;fill:#fcffff;fill-rule:evenodd;stroke:none;display:inline"/></g></svg>