<svg xmlns="http://www.w3.org/2000/svg" xmlns:svg="http://www.w3.org/2000/svg" id="svg5692" width="32" height="32" version="1.1"><metadata id="metadata31"/><title id="title3096">PgVersion init</title><g style="display:inline" id="layer2" transform="matrix(1.1740861,0,0,1.1740861,-5.5707538,-5.5707538)"><path style="color:#000;display:inline;overflow:visible;visibility:visible;fill:#ce5c00;fill-opacity:1;fill-rule:nonzero;stroke:none;stroke-width:1;marker:none;enable-background:accumulate" id="path14788" d="m 6.5,17.5 c 6.811881,2.891089 15.514851,2.376238 19,0 v 5 l -10,2 -9,-2 z"/><path style="color:#000;display:inline;overflow:visible;visibility:visible;fill:#fcaf3e;fill-opacity:1;fill-rule:nonzero;stroke:none;stroke-width:1;marker:none;enable-background:accumulate" id="path3121" d="m 6.5,7.5 c 6.811881,2.891089 15.514851,2.376238 19,0 v 5 l -10,2 -9,-2 z"/><path style="color:#000;display:inline;overflow:visible;visibility:visible;fill:#fcaf3e;fill-opacity:1;fill-rule:nonzero;stroke:#888a85;stroke-width:1;stroke-linecap:square;stroke-linejoin:round;stroke-miterlimit:4;stroke-dasharray:none;stroke-dashoffset:0;stroke-opacity:1;marker:none;enable-background:accumulate" id="path14757" d="m 25.5,7.5 a 9.5,2 0 1 1 -19,0 9.5,2 0 1 1 19,0 z"/><path style="color:#000;display:inline;overflow:visible;visibility:visible;fill:#f57900;fill-opacity:1;fill-rule:nonzero;stroke:none;stroke-width:1;marker:none;enable-background:accumulate" id="path3119" d="m 6.5,12.5 c 6.811881,2.891089 15.514851,2.376238 19,0 v 5 l -10,1 -9,-1 z"/><path style="color:#000;display:inline;overflow:visible;visibility:visible;fill:#729fcf;fill-opacity:.784314;fill-rule:nonzero;stroke:#888a85;stroke-width:1;stroke-linecap:round;stroke-linejoin:round;stroke-miterlimit:4;stroke-dasharray:none;stroke-dashoffset:0;stroke-opacity:1;marker:none;enable-background:accumulate" id="path14767" d="m 6.5,7.5 v 15"/><path style="color:#000;display:inline;overflow:visible;visibility:visible;fill:#729fcf;fill-opacity:.784314;fill-rule:nonzero;stroke:#888a85;stroke-width:1;stroke-linecap:round;stroke-linejoin:round;stroke-miterlimit:4;stroke-dasharray:none;stroke-dashoffset:0;stroke-opacity:1;marker:none;enable-background:accumulate" id="path14786" d="m 25.5,7.5 v 15"/><path style="fill:#fcaf3e;stroke:#888a85;stroke-width:1px;stroke-linecap:round;stroke-linejoin:round;stroke-opacity:1" id="path14836" d="m 6.5,12.5 c 6,3 13,3 19,0"/><path style="fill:#f57900;stroke:#888a85;stroke-width:1px;stroke-linecap:round;stroke-linejoin:round;stroke-opacity:1" id="path14838" d="m 6.5,17.5 c 6,3 13,3 19,0"/><path style="fill:#ce5c00;stroke:#888a85;stroke-width:1px;stroke-linecap:round;stroke-linejoin:round;stroke-opacity:1" id="path14840" d="m 6.5,22.5 c 6,3 13,3 19,0"/><path style="display:inline;opacity:.2;fill:#fcffff;fill-rule:evenodd;stroke:none" id="path13973-2" d="m 6.0695622,7.165215 c 0,0 -0.047827,13.573917 -0.047827,15.573917 3.5251728,2.182423 5.6326868,2.009567 5.6326868,2.009567 L 11.615088,9.1020812 C 10.475651,8.1212712 11.619842,6.1996533 17.452174,5.117389 15.409649,4.992041 7.0102811,4.640104 6.0695622,7.165215 Z"/></g><g style="display:inline" id="layer1" transform="matrix(1.4111611,0,0,1.4111611,-13.157156,-13.157156)"><rect style="color:#000;display:inline;overflow:visible;visibility:visible;opacity:.9;fill:#edd400;fill-opacity:1;fill-rule:nonzero;stroke:#c4a000;stroke-width:1;stroke-linecap:square;stroke-linejoin:round;stroke-miterlimit:4;stroke-dasharray:none;stroke-dashoffset:0;stroke-opacity:1;marker:none;enable-background:accumulate" id="rect10143-0-5-1" width="12" height="12" x="19.5" y="19.5" rx=".857" ry=".857"/><path style="display:inline;opacity:.3;fill:#fcffff;fill-rule:evenodd;stroke:none;enable-background:new" id="path10149-9-8-4" d="m 19.5,25.5 h 12 v -4 c 0,-2 0,-2 -3,-2 -0.698149,0 -6.072237,0 -7,0 -2,0 -2,0 -2,2 0,1 0,2 0,4 z"/><g style="stroke:#eeeeec" id="g8311"><path style="fill:#babdb6;stroke:#eeeeec;stroke-width:1.70561;stroke-linecap:round;stroke-linejoin:miter;stroke-miterlimit:4;stroke-dasharray:none;stroke-opacity:1" id="path13835-7-4" d="m 25.5,21.5 v 4"/><path style="fill:#5c3566;stroke:#eeeeec;stroke-width:1.70561;stroke-linecap:round;stroke-linejoin:miter;stroke-miterlimit:4;stroke-dasharray:none;stroke-opacity:1" id="path8245-5" d="m 21.5,23.5 4,2"/><path style="fill:#5c3566;stroke:#eeeeec;stroke-width:1.70561;stroke-linecap:round;stroke-linejoin:miter;stroke-miterlimit:4;stroke-dasharray:none;stroke-opacity:1" id="path8309" d="m 25.5,25.5 4,-2"/></g><g style="stroke:#eeeeec" id="g8316" transform="matrix(1,0,0,-1,0,51)"><path style="fill:#babdb6;stroke:#eeeeec;stroke-width:1.70561;stroke-linecap:round;stroke-linejoin:miter;stroke-miterlimit:4;stroke-dasharray:none;stroke-opacity:1" id="path8318" d="m 25.5,21.5 v 4"/><path style="fill:#5c3566;stroke:#eeeeec;stroke-width:1.70561;stroke-linecap:round;stroke-linejoin:miter;stroke-miterlimit:4;stroke-dasharray:none;stroke-opacity:1" id="path8320" d="m 21.5,23.5 4,2"/><path style="fill:#5c3566;stroke:#eeeeec;stroke-width:1.70561;stroke-linecap:round;stroke-linejoin:miter;stroke-miterlimit:4;stroke-dasharray:none;stroke-opacity:1" id="path8322" d="m 25.5,25.5 4,-2"/></g></g></svg>