<svg xmlns="http://www.w3.org/2000/svg" xmlns:svg="http://www.w3.org/2000/svg" id="svg5692" width="24" height="24" version="1.1" style="display:inline"><title id="title2968">PgVersion icon - log</title><metadata id="metadata5697"/><g id="layer10" style="display:inline"><g id="g2958" transform="translate(12,4)"><path id="path14788" d="m -11.5,8.5 c 6.811881,2.891089 15.514851,2.376238 19,0 l 0,5 -10,2 -9,-2 0,-5 z" style="color:#000;fill:#ce5c00;fill-opacity:1;fill-rule:nonzero;stroke:none;stroke-width:1;marker:none;visibility:visible;display:inline;overflow:visible;enable-background:accumulate"/><path id="path3121" d="m -11.5,-1.5 c 6.811881,2.891089 15.514851,2.376238 19,0 l 0,5 -10,2 -9,-2 0,-5 z" style="color:#000;fill:#fcaf3e;fill-opacity:1;fill-rule:nonzero;stroke:none;stroke-width:1;marker:none;visibility:visible;display:inline;overflow:visible;enable-background:accumulate"/><path id="path14757" d="m 25.5,7.5 c 0,1.1045695 -4.253295,2 -9.5,2 -5.246705,0 -9.5,-0.8954305 -9.5,-2 0,-1.1045695 4.253295,-2 9.5,-2 5.246705,0 9.5,0.8954305 9.5,2 z" transform="translate(-18,-9)" style="color:#000;fill:#fcaf3e;fill-opacity:1;fill-rule:nonzero;stroke:#888a85;stroke-width:1;stroke-linecap:square;stroke-linejoin:round;stroke-miterlimit:4;stroke-opacity:1;stroke-dasharray:none;stroke-dashoffset:0;marker:none;visibility:visible;display:inline;overflow:visible;enable-background:accumulate"/><path style="color:#000;fill:#f57900;fill-opacity:1;fill-rule:nonzero;stroke:none;stroke-width:1;marker:none;visibility:visible;display:inline;overflow:visible;enable-background:accumulate" id="path3119" d="m -11.5,3.5 c 6.811881,2.891089 15.514851,2.376238 19,0 l 0,5 -10,1 -9,-1 0,-5 z"/><path id="path14767" d="m -11.5,-1.5 0,15" style="color:#000;fill:#729fcf;fill-opacity:.78431373;fill-rule:nonzero;stroke:#888a85;stroke-width:1;stroke-linecap:round;stroke-linejoin:round;stroke-miterlimit:4;stroke-opacity:1;stroke-dasharray:none;stroke-dashoffset:0;marker:none;visibility:visible;display:inline;overflow:visible;enable-background:accumulate"/><path style="color:#000;fill:#729fcf;fill-opacity:.78431373;fill-rule:nonzero;stroke:#888a85;stroke-width:1;stroke-linecap:round;stroke-linejoin:round;stroke-miterlimit:4;stroke-opacity:1;stroke-dasharray:none;stroke-dashoffset:0;marker:none;visibility:visible;display:inline;overflow:visible;enable-background:accumulate" id="path14786" d="m 7.5,-1.5 0,15"/><path id="path14836" d="m -11.5,3.5 c 6,3 13,3 19,0" style="fill:#fcaf3e;stroke:#888a85;stroke-width:1px;stroke-linecap:round;stroke-linejoin:round;stroke-opacity:1;display:inline"/><path style="fill:#f57900;stroke:#888a85;stroke-width:1px;stroke-linecap:round;stroke-linejoin:round;stroke-opacity:1;display:inline" id="path14838" d="m -11.5,8.5 c 6,3 13,3 19,0"/><path id="path14840" d="m -11.5,13.5 c 6,3 13,3 19,0" style="fill:#ce5c00;stroke:#888a85;stroke-width:1px;stroke-linecap:round;stroke-linejoin:round;stroke-opacity:1;display:inline"/><path id="path13973-2" d="m -11.930438,-1.834785 c 0,0 -0.04783,13.573917 -0.04783,15.573917 3.525173,2.182423 5.632687,2.009567 5.632687,2.009567 L -6.384912,0.1020812 c -1.139437,-0.98081 0.00475,-2.9024279 5.837086,-3.9846922 -2.042525,-0.125348 -10.441893,-0.477285 -11.382612,2.047826 z" style="opacity:.2;fill:#fcffff;fill-rule:evenodd;stroke:none;display:inline"/></g></g><g id="layer8" style="display:inline"><g id="g3777" transform="translate(30,11)"><path style="fill:#fcffff;fill-opacity:.78472218;fill-rule:nonzero;stroke:#969696;stroke-width:1;stroke-linecap:round;stroke-linejoin:round;stroke-miterlimit:4;stroke-opacity:1;stroke-dasharray:none;stroke-dashoffset:.5;marker:none;visibility:visible;display:inline;overflow:visible;enable-background:accumulate" id="path5025" d="m -17.5,0.5 0,12 11,0 0,-12 -11,0 z"/><path id="path5631" d="m -15.5,4.5 1,0" style="fill:#eef9bb;fill-opacity:1;fill-rule:evenodd;stroke:#969696;stroke-width:1px;stroke-linecap:butt;stroke-linejoin:miter;stroke-opacity:1"/><path id="path5633" d="m -12.5,6.5 4,0" style="fill:#eef9bb;fill-opacity:1;fill-rule:evenodd;stroke:#969696;stroke-width:1px;stroke-linecap:butt;stroke-linejoin:miter;stroke-opacity:1"/><path style="fill:#eef9bb;fill-opacity:1;fill-rule:evenodd;stroke:#969696;stroke-width:1px;stroke-linecap:butt;stroke-linejoin:miter;stroke-opacity:1" id="path2941" d="m -15.5,2.5 1,0"/><path id="path2943" d="m -15.5,6.5 1,0" style="fill:#eef9bb;fill-opacity:1;fill-rule:evenodd;stroke:#969696;stroke-width:1px;stroke-linecap:butt;stroke-linejoin:miter;stroke-opacity:1"/><path style="fill:#eef9bb;fill-opacity:1;fill-rule:evenodd;stroke:#969696;stroke-width:1px;stroke-linecap:butt;stroke-linejoin:miter;stroke-opacity:1" id="path2945" d="m -12.5,4.5 4,0"/><path id="path2947" d="m -12.5,2.5 4,0" style="fill:#eef9bb;fill-opacity:1;fill-rule:evenodd;stroke:#969696;stroke-width:1px;stroke-linecap:butt;stroke-linejoin:miter;stroke-opacity:1"/><path style="fill:#eef9bb;fill-opacity:1;fill-rule:evenodd;stroke:#969696;stroke-width:1px;stroke-linecap:butt;stroke-linejoin:miter;stroke-opacity:1" id="path2949" d="m -15.5,8.5 1,0"/><path id="path2951" d="m -15.5,10.5 1,0" style="fill:#eef9bb;fill-opacity:1;fill-rule:evenodd;stroke:#969696;stroke-width:1px;stroke-linecap:butt;stroke-linejoin:miter;stroke-opacity:1"/><path style="fill:#eef9bb;fill-opacity:1;fill-rule:evenodd;stroke:#969696;stroke-width:1px;stroke-linecap:butt;stroke-linejoin:miter;stroke-opacity:1" id="path2953" d="m -12.5,8.5 4,0"/><path id="path2955" d="m -12.5,10.5 4,0" style="fill:#eef9bb;fill-opacity:1;fill-rule:evenodd;stroke:#969696;stroke-width:1px;stroke-linecap:butt;stroke-linejoin:miter;stroke-opacity:1"/></g></g></svg>