<svg xmlns="http://www.w3.org/2000/svg" xmlns:svg="http://www.w3.org/2000/svg" id="svg5692" width="24" height="24" version="1.1" style="display:inline"><title id="title2968">PgVersion icon - help</title><metadata id="metadata5697"/><g id="layer10" style="display:inline"><g id="g2958" transform="translate(12,4)"><path id="path14788" d="m -11.5,8.5 c 6.811881,2.891089 15.514851,2.376238 19,0 l 0,5 -10,2 -9,-2 0,-5 z" style="color:#000;fill:#ce5c00;fill-opacity:1;fill-rule:nonzero;stroke:none;stroke-width:1;marker:none;visibility:visible;display:inline;overflow:visible;enable-background:accumulate"/><path id="path3121" d="m -11.5,-1.5 c 6.811881,2.891089 15.514851,2.376238 19,0 l 0,5 -10,2 -9,-2 0,-5 z" style="color:#000;fill:#fcaf3e;fill-opacity:1;fill-rule:nonzero;stroke:none;stroke-width:1;marker:none;visibility:visible;display:inline;overflow:visible;enable-background:accumulate"/><path id="path14757" d="m 25.5,7.5 c 0,1.1045695 -4.253295,2 -9.5,2 -5.246705,0 -9.5,-0.8954305 -9.5,-2 0,-1.1045695 4.253295,-2 9.5,-2 5.246705,0 9.5,0.8954305 9.5,2 z" transform="translate(-18,-9)" style="color:#000;fill:#fcaf3e;fill-opacity:1;fill-rule:nonzero;stroke:#888a85;stroke-width:1;stroke-linecap:square;stroke-linejoin:round;stroke-miterlimit:4;stroke-opacity:1;stroke-dasharray:none;stroke-dashoffset:0;marker:none;visibility:visible;display:inline;overflow:visible;enable-background:accumulate"/><path style="color:#000;fill:#f57900;fill-opacity:1;fill-rule:nonzero;stroke:none;stroke-width:1;marker:none;visibility:visible;display:inline;overflow:visible;enable-background:accumulate" id="path3119" d="m -11.5,3.5 c 6.811881,2.891089 15.514851,2.376238 19,0 l 0,5 -10,1 -9,-1 0,-5 z"/><path id="path14767" d="m -11.5,-1.5 0,15" style="color:#000;fill:#729fcf;fill-opacity:.78431373;fill-rule:nonzero;stroke:#888a85;stroke-width:1;stroke-linecap:round;stroke-linejoin:round;stroke-miterlimit:4;stroke-opacity:1;stroke-dasharray:none;stroke-dashoffset:0;marker:none;visibility:visible;display:inline;overflow:visible;enable-background:accumulate"/><path style="color:#000;fill:#729fcf;fill-opacity:.78431373;fill-rule:nonzero;stroke:#888a85;stroke-width:1;stroke-linecap:round;stroke-linejoin:round;stroke-miterlimit:4;stroke-opacity:1;stroke-dasharray:none;stroke-dashoffset:0;marker:none;visibility:visible;display:inline;overflow:visible;enable-background:accumulate" id="path14786" d="m 7.5,-1.5 0,15"/><path id="path14836" d="m -11.5,3.5 c 6,3 13,3 19,0" style="fill:#fcaf3e;stroke:#888a85;stroke-width:1px;stroke-linecap:round;stroke-linejoin:round;stroke-opacity:1;display:inline"/><path style="fill:#f57900;stroke:#888a85;stroke-width:1px;stroke-linecap:round;stroke-linejoin:round;stroke-opacity:1;display:inline" id="path14838" d="m -11.5,8.5 c 6,3 13,3 19,0"/><path id="path14840" d="m -11.5,13.5 c 6,3 13,3 19,0" style="fill:#ce5c00;stroke:#888a85;stroke-width:1px;stroke-linecap:round;stroke-linejoin:round;stroke-opacity:1;display:inline"/><path id="path13973-2" d="m -11.930438,-1.834785 c 0,0 -0.04783,13.573917 -0.04783,15.573917 3.525173,2.182423 5.632687,2.009567 5.632687,2.009567 L -6.384912,0.1020812 c -1.139437,-0.98081 0.00475,-2.9024279 5.837086,-3.9846922 -2.042525,-0.125348 -10.441893,-0.477285 -11.382612,2.047826 z" style="opacity:.2;fill:#fcffff;fill-rule:evenodd;stroke:none;display:inline"/></g></g><g id="layer8" style="display:inline"><g id="g5786" transform="translate(-18,2)"><path style="opacity:.9;fill:#e6e6e6;fill-opacity:1;fill-rule:nonzero;stroke:none;stroke-width:1.5;marker:none;visibility:visible;display:inline;overflow:visible;enable-background:accumulate" id="path3076" d="M 33.25,5.25 C 28.696,5.25 25,8.946 25,13.5 c 0,4.554 3.696,8.25 8.25,8.25 4.554,0 8.25,-3.696 8.25,-8.25 0,-4.554 -3.696,-8.25 -8.25,-8.25 z m 0,3 c 2.897999,0 5.25,2.352 5.25,5.25 -10e-7,2.897999 -2.352,5.25 -5.25,5.25 -2.898,-1e-6 -5.25,-2.352 -5.25,-5.25 0,-2.898 2.352,-5.25 5.25,-5.25 z"/><path style="opacity:.9;fill:#a00000;fill-opacity:1;fill-rule:nonzero;stroke:none;stroke-width:1.5;marker:none;visibility:visible;display:inline;overflow:visible;enable-background:accumulate" id="path3074" d="m 31,5.25 0.75,3 3,0 0.75,-3 -4.5,0 z"/><path id="path3879" d="m 31,21.375 0.75,-3 3,0 0.75,3 -4.5,0 z" style="opacity:.9;fill:#a00000;fill-opacity:1;fill-rule:nonzero;stroke:none;stroke-width:1.5;marker:none;visibility:visible;display:inline;overflow:visible;enable-background:accumulate"/><path id="path3883" d="m 25.097057,15.737224 3.000002,-0.750002 -1e-6,-3 -3.000002,-0.75 1e-6,4.500002 z" style="opacity:.9;fill:#a00000;fill-opacity:1;fill-rule:nonzero;stroke:none;stroke-width:1.5;marker:none;visibility:visible;display:inline;overflow:visible;enable-background:accumulate"/><path style="opacity:.9;fill:#a00000;fill-opacity:1;fill-rule:nonzero;stroke:none;stroke-width:1.5;marker:none;visibility:visible;display:inline;overflow:visible;enable-background:accumulate" id="path3881" d="m 41.222058,15.737224 -3.000002,-0.750002 10e-7,-3 3.000002,-0.75 -1e-6,4.500002 z"/><path style="fill:none;stroke:#969696;stroke-width:1.33333337;stroke-linecap:round;stroke-linejoin:round;stroke-miterlimit:4;stroke-opacity:1;stroke-dasharray:none;stroke-dashoffset:.5;marker:none;visibility:visible;display:inline;overflow:visible;enable-background:accumulate" id="path3081" d="M 23,12 A 11,11 0 1 1 1,12 11,11 0 1 1 23,12 z" transform="matrix(0.75,0,0,0.75,24.25,4.5)"/><path id="path3083" d="M 23,12 A 11,11 0 1 1 1,12 11,11 0 1 1 23,12 z" transform="matrix(0.46487603,0,0,0.46487603,27.671488,7.9214876)" style="fill:#fff;fill-opacity:.78431373;stroke:#969696;stroke-width:2.15111113;stroke-linecap:round;stroke-linejoin:round;stroke-miterlimit:4;stroke-opacity:1;stroke-dasharray:none;stroke-dashoffset:.80666668;marker:none;visibility:visible;display:inline;overflow:visible;enable-background:accumulate"/><path style="fill:none;stroke:#fcffff;stroke-width:2;stroke-linecap:round;stroke-linejoin:round;stroke-miterlimit:4;stroke-opacity:.58823529;stroke-dasharray:none;stroke-dashoffset:.5;marker:none;visibility:visible;display:inline;overflow:visible;enable-background:accumulate" id="path3901" d="m 27.25,10.5 c 2.25,-3 3.75,-3.75 6,-3.75"/></g></g></svg>